<?xml version="1.0" encoding="UTF-8" standalone="no"?>
<!-- Created with Inkscape (http://www.inkscape.org/) -->

<svg
   width="40mm"
   height="40mm"
   viewBox="0 0 50 50"
   version="1.1"
   id="svg1"
   inkscape:version="1.4.2 (f4327f4, 2025-05-13)"
   sodipodi:docname="b.svg"
   xmlns:inkscape="http://www.inkscape.org/namespaces/inkscape"
   xmlns:sodipodi="http://sodipodi.sourceforge.net/DTD/sodipodi-0.dtd"
   xmlns="http://www.w3.org/2000/svg"
   xmlns:svg="http://www.w3.org/2000/svg">
  <sodipodi:namedview
     id="namedview1"
     pagecolor="#ffffff"
     bordercolor="#000000"
     borderopacity="0.25"
     inkscape:showpageshadow="2"
     inkscape:pageopacity="0.0"
     inkscape:pagecheckerboard="0"
     inkscape:deskcolor="#d1d1d1"
     inkscape:document-units="cm"
     inkscape:zoom="2.8756734"
     inkscape:cx="113.36475"
     inkscape:cy="130.23037"
     inkscape:window-width="2880"
     inkscape:window-height="1514"
     inkscape:window-x="-11"
     inkscape:window-y="-11"
     inkscape:window-maximized="1"
     inkscape:current-layer="layer1" />
  <defs
     id="defs1" />
  <g
     inkscape:label="Layer 1"
     inkscape:groupmode="layer"
     id="layer1"
     transform="translate(-138.01115,24.105948)">
    <path
       id="path859"
       style="font-style:normal;font-variant:normal;font-weight:normal;font-stretch:normal;font-size:medium;line-height:125%;font-family:Gallaudet;-inkscape-font-specification:Gallaudet;text-align:start;letter-spacing:0px;word-spacing:0px;text-anchor:start;display:inline;fill:#000000;fill-opacity:1;stroke:none;stroke-width:0.330729px;stroke-linecap:butt;stroke-linejoin:miter;stroke-opacity:1"
       d="m 163.12277,-13.095573 q 1.2941,0 1.56183,0.89249 -0.0893,0.446231 0.1785,0.71398 0.22313,-0.133806 0.40162,-0.133806 0.26774,0 0.58011,0.133806 0.31237,0.133807 0.44624,0.178496 0.80323,1.070971 1.07097,2.9005566 0.26775,1.784963 0.49087,3.480675 0,1.338719 0.44624,4.3285266 0.44624,2.9898087 0.44624,4.0161587 0,1.1156 -0.0893,1.606465 -0.0446,0.4462388 -0.31237,1.3387188 -0.71398,1.606464 -1.16022,3.525296 -0.40162,1.8742073 -0.58012,3.9715333 -1.47259,1.026352 -3.65917,1.026352 -2.23119,0 -4.1054,-0.981727 0,-0.535489 0.13394,-1.56184 0.1785,-1.070974 0.1785,-1.47259 0,-0.535489 -0.0893,-0.847857 -0.40161,-0.4462403 -0.66936,-0.9817273 -0.22312,-0.535488 -0.49087,-1.383344 -0.35699,-2.0527035 -0.49086,-2.9451835 -0.13395,-0.89248 -0.13395,-2.1865763 0,-1.65108623 0.44625,-3.03443 0.44624,-3.6591673 0.71398,-5.6672463 0.26775,-2.052709 0.93711,-2.14195 0.71398,-0.0893 0.62474,-0.5801193 0.0893,-1.1602253 0.22312,-2.3204373 0.22311,-0.66936 0.93709,-0.803235 0.22313,-0.08929 0.5355,0 0.35699,0.08929 0.49085,0.08929 0.26775,-0.490865 0.40163,-0.758601 0.17849,-0.26775 0.53548,-0.401624 z m 1.1156,0.535499 q -0.13394,-0.223129 -0.5355,-0.223129 h -0.44623 q -0.44624,0.26775 -0.66936,0.62474 -0.17849,0.31237 -0.17849,0.758615 0,0.223115 0.1338,0.981716 0.13395,0.7586153 0.0446,1.2048463 h 1.82959 q -0.0446,-0.490851 0,-1.0263503 0.0446,-0.580106 0.0893,-1.115592 0,-0.713981 -0.26775,-1.204846 z m -3.12368,0.803222 q -0.44625,0.223129 -0.62474,0.713994 -0.13395,0.446231 -0.13395,1.1602263 v 0.937096 q 0,0.3123693 -0.0893,0.7586143 h 1.82959 l 0.0893,-2.9451906 q 0,-0.401611 -0.44623,-0.490865 -0.44625,-0.133807 -0.62474,-0.133807 z m 4.01616,0.446245 q -0.1785,0.178495 -0.31237,0.490865 -0.0893,0.31237 -0.0893,0.8478553 0,0.356991 0.0893,0.892476 0.13394,0.4908653 0.26775,1.0709843 h 1.96345 q 0,-0.446244 -0.0893,-1.0709843 -0.0893,-0.66936 -0.22311,-1.3387213 -0.17849,-0.490865 -0.62474,-0.758601 -0.44623,-0.31237 -0.98173,-0.133806 z m -2.54357,2.5881863 q -0.13381,0.3570043 -0.13381,0.6693603 0,0.178495 0.0893,0.847862 0.0893,0.66936 0.0893,0.981727 0.17849,-0.04462 0.49086,-0.04462 0.35699,-0.04463 0.66936,-0.08925 h 0.89248 v -1.383344 q 0,-0.535485 -0.0447,-0.803235 -0.357,-0.4462313 -1.20485,-0.4462313 -0.49086,0 -0.84785,0.267736 z m -3.07905,0.5354993 q -0.89249,0.312356 -0.98173,1.338714 -0.0893,0.981727 -0.13394,1.606464 0.26773,-0.08924 0.84785,-0.08924 0.53549,0 0.7586,0.04462 0.0893,-0.803233 0.13395,-1.383344 0.0893,-0.580113 0.0893,-1.026363 0,-0.490851 -0.71398,-0.490851 z m 1.11559,0.267736 q 0,0.669362 -0.0446,1.338723 -0.0447,0.66936 -0.0893,1.338719 0.31237,-0.04462 0.89248,-0.133875 0.58012,-0.08925 0.80323,-0.04462 l 0.0893,-1.963462 q -0.0446,-0.580105 -0.80323,-0.580105 -0.62473,0.04465 -0.84786,0.04465 z m 4.46241,0.26775 q -0.13395,0.535484 -0.13395,1.070973 0,0.535487 0.1785,0.937104 0.22312,-0.178497 0.58011,-0.178497 0.0893,0 0.75861,0.178497 0.71398,0.133875 1.02635,0.08925 l -0.17849,-1.338722 q 0.22311,-0.937092 -0.89249,-0.937092 -0.62473,0 -0.89248,0.0893 -0.22311,0.04465 -0.44624,0.0893 z m -2.45433,1.740333 q -0.0446,0.312367 -0.0446,0.847855 0,0.401616 0.0446,0.89248 0.0893,0.490864 0.13394,0.803231 0.13381,0.356993 0.44625,0.356993 0.58011,-0.133874 0.89248,-0.178497 0.35699,-0.04462 0.53548,0.04462 0.22312,-0.580112 0.22312,-1.33872 0,-0.758607 -0.22312,-1.427966 -0.17849,-0.04462 -0.53548,-0.04462 -0.75862,0.04462 -1.4726,0.04462 z m 2.54357,0.758607 q 0,0.44624 0,0.803232 0,0.356991 0.17849,0.981727 0.31237,0.535489 1.02636,0.803233 0.71398,0.267743 1.38334,0.4908633 0,-0.7139833 -0.0446,-1.3833433 -0.0446,-0.66936 -0.1785,-1.383344 -0.35699,-0.535489 -1.29409,-0.535489 -0.62474,0 -1.07098,0.223121 z m -3.56992,0 q -0.0446,0.04462 -0.62474,0.133875 -0.53548,0.08925 -0.53548,0.490864 0.0447,0.178495 0.0447,0.580111 0,0.981728 0.0893,1.294097 0.1338,0.312367 0.89247,0.178495 0.35699,0 0.62474,-0.312368 0.26775,-0.356991 0.26775,-1.115599 -0.0446,-0.624736 -0.13394,-1.026352 -0.0446,-0.401616 -0.62474,-0.22312 z m -2.63282,0.08925 q -0.5801,0 -0.5801,0.624735 0.0446,0.490864 0.0446,0.758609 0,0.178495 -0.0893,0.446239 l 1.74034,-0.08925 0.0893,-1.160225 q 0,-0.446239 -0.40161,-0.535486 -0.58012,-0.04462 -0.80324,-0.04462 z m -0.62473,2.320447 -0.17849,2.0973283 q 0.49087,-0.2231212 1.02635,-0.4462412 0.53549,-0.3123663 0.44623,-0.9371025 0.31237,-0.4016166 0.62474,-0.8478576 -0.17849,-0.178495 -0.40161,-0.178495 -0.75861,0.178495 -1.51722,0.312368 z m 5.578,0 q -0.40162,0.04462 -0.80323,0.133875 -0.40161,0.04462 -0.53549,0.4016158 0.1785,0.1784963 1.07097,0.3569913 0.89248,0.1784962 1.16023,0.713985 0.31237,0.089237 0.62474,-0.1784963 0.35699,-0.3123675 0.44623,-0.3569925 0.13381,0.267745 -0.0893,0.44624 -0.22312,0.1784963 -0.44623,0.3569913 0.26773,0.490865 0.49086,0.7586087 0.26774,0.2677438 0.62473,0.401615 0.17849,0.31236877 0.98173,1.1156 0.84785,0.7586075 0.93711,1.3833438 -0.13394,-1.82958253 -0.22313,-2.6774388 -0.0446,-0.89248 -0.26774,-1.6064637 -0.44624,-0.401615 -1.16022,-0.5801125 -0.71398,-0.2231191 -1.38334,-0.4462391 -0.1785,0.08924 -0.22313,0.267744 -0.0447,0.1784951 -0.0893,0.3123676 0.22313,-0.5801116 -0.22312,-0.7139836 -0.66936,-0.04462 -0.89247,-0.08925 z m -3.30218,0.356993 q -0.40161,0.2231191 -0.40161,0.7139828 l 0.22312,0.178495 q 0.26775,0.133875 0.49086,0.133875 0.40161,0 0.44625,-0.4908637 -0.0893,-0.133875 -0.35699,-0.2677438 -0.26775,-0.1338753 -0.40163,-0.2677423 z m 1.2941,0.2231191 q 0.35699,0.133875 0.44623,0.044625 -0.0893,-0.1338751 -0.26773,-0.1784961 -0.1785,-0.04462 -0.1785,0.1338748 z m -2.0527,0.4016162 q -0.22313,0.8032313 0.44623,1.5618388 0.58012,0.4908637 1.20485,0.84785617 0.62474,0.3123688 1.16022,0.3123688 0.31237,0 0.66936,-0.133875 -0.17849,0.22311873 -0.22311,0.35699123 0.31237,0.6247363 1.47259,1.2940963 1.16023,0.6247362 1.29409,1.4725912 -0.31237,0.044625 -0.49087,-0.3123675 -0.17849,-0.4016162 -0.35699,-0.490865 l -0.0893,0.2677438 q -0.35698,-0.4462338 -0.71397,-0.7139775 -0.35699,-0.3123675 -0.80324,-0.3123675 l -1.11559,2.7666863 0.89248,3.3914227 q 0.75861,0.624736 2.09733,0.847857 0.58011,0 1.02635,-0.178496 0.44624,-0.22312 0.9371,-0.669361 0.62474,-2.6328152 0.62474,-5.5779978 l -0.35699,0.4462388 q 0.0446,-0.6693587 0.0893,-1.3387187 -1.51722,-1.42796883 -2.98981,-2.90056 -0.0893,0.4462412 -0.35699,0.5801137 0.13394,-0.490865 0.13394,-0.89248 -0.17849,-0.133875 -0.44624,0.2677425 h 0.26775 q -0.1785,0.5354875 -0.62474,0.7586075 -0.1785,-0.089237 -0.0893,-0.3569912 0.1338,-0.3123676 0.31236,-0.6693588 l -0.49086,0.7139825 q -0.0893,-0.1784962 0.0893,-0.5354875 0.22311,-0.3569925 0.17849,-0.4908637 l -1.51721,-0.22312 q -0.13394,0.044625 -0.35699,0.3569912 -0.22312,0.3123688 -0.44625,0.267745 -0.62472,-0.089237 -1.02635,-0.1784975 -0.40161,-0.089238 -0.40161,-0.5354862 z m -0.44624,0.9817275 q -0.1785,0.22312 -0.7586,0.4016163 -0.5355,0.178495 -0.66936,0.3123675 -0.22313,0.62473617 -0.31238,1.3387187 -0.0893,0.6693613 -0.0893,1.3387213 0,0.7586075 0,1.070975 0.0446,0.3123688 0.35699,2.2311988 0.26773,1.0263527 0.62472,2.1419527 0.35701,1.115599 0.93711,1.784959 0.49087,0.1784973 1.16023,0.1784973 1.16022,0 2.14195,-0.6247363 0.0893,0.178495 -0.0893,0.312367 -0.17849,0.133875 -0.31237,0.223119 l 0.1785,0.08925 -0.0893,0.267744 q -0.62474,0.312367 -1.02635,0.44624 -0.40163,0.133875 -0.89249,0.133875 -0.62473,0 -1.02635,-0.356993 0,0.267744 -0.1785,1.383343 -0.13394,1.1156 -0.13394,1.695711 0.80324,0.312369 1.69571,0.535489 0.89249,0.223119 1.65109,0.223119 v -0.669359 q 0,-0.580112 0.13395,-1.874207 0.1338,-1.294096 0.1338,-1.9634563 l 0.22312,-0.22312 -0.22312,3.3021763 q 0.1785,-0.624737 0.22312,-1.294097 0.0446,-0.669359 0.0446,-1.47259 -0.0446,-0.1784963 0.17849,-0.4462413 0.22313,-0.267744 0.22313,-0.356991 0,-0.178497 -0.31237,-0.22312 l -0.17849,0.22312 q -0.22313,-0.401617 -0.58012,-1.695712 -0.31236,-1.3387197 -0.53549,-1.7849597 0,-0.66936 0.26775,-1.56184 0.26774,-0.89248 0.53549,-1.6957113 -0.0447,-0.044625 -0.22312,0.044625 -0.17849,0.044625 -0.22313,-0.133875 0.0893,-0.133875 0.40163,-0.22312 0.35699,-0.089238 0.40161,-0.3569912 -0.71398,-0.7586088 -1.78495,-0.7586088 -0.58012,0 -1.74035,0.267745 -1.16022,0.2677438 -1.69571,0.2677438 0.66936,-0.4016163 1.42797,-0.5354888 0.80323,-0.178495 1.82958,-0.178495 -0.35699,-0.26774373 -0.84786,-0.7586075 -0.44623,-0.4908637 -0.84785,-1.0263525 z m 4.19465,10.5758863 q -0.22311,0.7586063 -0.35699,1.9634543 -0.0893,1.160224 -0.22313,2.588191 h 0.1785 q 0.0893,-0.937104 0.22313,-2.409696 0.17849,-1.517213 0.17849,-2.1419493 z m 2.67744,0.2231203 q -0.31237,1.115599 -0.31237,2.14195 z m -2.36507,0.04462 q 0,0.535489 -0.13394,1.561839 -0.13394,1.026352 -0.13394,1.561839 0,0.535489 0.13394,1.026352 0.9371,0 1.11559,-0.04462 0.22313,-0.08925 0.49087,-0.401616 l 0.44624,-3.659167 q -0.58012,0 -0.89248,0 -0.49086,0 -0.58011,0.267744 -0.0447,-0.356991 -0.44623,-0.312369 z m 2.36507,2.275823 0.13381,-0.624737 z m -0.44624,1.070976 0.0446,-0.44624 z m -5.97961,-9.5049106 q 0.80322,-0.3123662 1.07097,-0.4462387 0.31237,-0.133875 0.53549,-0.5801113 -0.80324,0.5354863 -1.60646,1.02635 z m 4.2839,7.9876946 0.0893,-0.133874 z m 0.13394,-1.160223 0.0893,0.580111 z" />
  </g>
</svg>
