<?xml version="1.0" encoding="UTF-8" standalone="no"?>
<!-- Created with Inkscape (http://www.inkscape.org/) -->

<svg
   width="40mm"
   height="40mm"
   viewBox="0 0 50 50"
   version="1.1"
   id="svg1"
   inkscape:version="1.4.2 (f4327f4, 2025-05-13)"
   sodipodi:docname="8.svg"
   xmlns:inkscape="http://www.inkscape.org/namespaces/inkscape"
   xmlns:sodipodi="http://sodipodi.sourceforge.net/DTD/sodipodi-0.dtd"
   xmlns="http://www.w3.org/2000/svg"
   xmlns:svg="http://www.w3.org/2000/svg">
  <sodipodi:namedview
     id="namedview1"
     pagecolor="#ffffff"
     bordercolor="#000000"
     borderopacity="0.25"
     inkscape:showpageshadow="2"
     inkscape:pageopacity="0.0"
     inkscape:pagecheckerboard="0"
     inkscape:deskcolor="#d1d1d1"
     inkscape:document-units="cm"
     inkscape:zoom="2.8756734"
     inkscape:cx="113.53862"
     inkscape:cy="130.23037"
     inkscape:window-width="2880"
     inkscape:window-height="1514"
     inkscape:window-x="-11"
     inkscape:window-y="-11"
     inkscape:window-maximized="1"
     inkscape:current-layer="layer1"
     showguides="false" />
  <defs
     id="defs1" />
  <g
     inkscape:label="Layer 1"
     inkscape:groupmode="layer"
     id="layer1"
     transform="translate(-138.01115,24.105948)">
    <path
       id="path925"
       style="font-style:normal;font-variant:normal;font-weight:normal;font-stretch:normal;font-size:medium;line-height:125%;font-family:Gallaudet;-inkscape-font-specification:Gallaudet;text-align:start;letter-spacing:0px;word-spacing:0px;text-anchor:start;display:inline;fill:#000000;fill-opacity:1;stroke:none;stroke-width:0.330729px;stroke-linecap:butt;stroke-linejoin:miter;stroke-opacity:1"
       d="m 169.07997,-13.876486 q 0.35699,-0.08925 0.44624,-0.08925 0.35699,0 0.66936,0.267738 0.35699,0.223125 0.5801,0.624737 0.357,1.249475 0.49088,2.811325 0.13394,1.5172128 0.13394,2.9451753 0,0.8032375 -0.0446,2.4096875 -0.0446,1.606475 -0.0446,2.4097125 0,1.3833375 0.0446,2.2758125 0.0892,0.892475 0.22311,2.008075 0.1785,1.1156125 0.1785,2.1419625 0,0.981725 -0.0893,2.4989375 -0.0446,1.517225 -0.0446,1.561837 -0.0446,0.267738 -0.357,0.580113 -0.31236,0.312362 -0.4016,0.490862 l 0.4016,4.4624132 q -2.49894,2.231187 -5.62261,2.231187 -1.02635,-0.223125 -1.74034,-0.356987 -0.71399,-0.133938 -0.71399,-0.84785 0,-0.223138 0.1338,-0.580125 -0.1338,-1.115587 -0.26772,-2.2312 -0.26775,-1.249463 -1.11562,-1.8742002 -0.49086,-0.847863 -1.78496,-5.13175 -1.24946,-4.2839125 -3.43604,-5.8011375 -0.0892,-0.1338 -1.20485,-1.4725875 -1.1156,-1.338725 -1.24947,-2.2312 0.26774,-0.84785 0.80322,-0.981725 0.84787,0.1339375 1.82959,1.4725875 1.02635,1.2941 1.78496,1.4726 0.1785,0.08925 0.89248,0.9371 0.75861,0.803225 1.29411,0.66935 l 0.0893,-0.08925 q -0.26774,-1.02635 -0.71397,-2.3204375 -0.40162,-1.2941 -0.93712,-2.7667 -0.53548,-1.2048375 -0.7586,-1.918825 -0.1785,-0.713975 -0.1785,-1.160225 l 0.0892,-0.7586128 q 0.49087,-0.446237 1.24948,-0.446237 0.26774,0 0.40161,0.04462 0.71399,0.8032373 1.60648,2.9451748 0.89247,2.0973375 1.56183,2.9898125 0.0892,-0.2231125 0.13394,-0.713975 0.0446,-0.4908625 0.13381,-0.7139875 0.31237,-0.223125 0.84785,-0.3123625 0.58013,-0.1338125 1.1156,-0.2231375 1.33873,1.20485 1.69572,3.0344375 0.66936,-0.4908625 0.71398,-1.5172125 0.0892,-1.070975 0.17849,-2.0527 l 0.1785,-5.8903748 q 0.13394,-0.223113 0.31238,-0.490863 0.22312,-0.312362 0.49086,-0.312362 z m 0,0.267738 q -0.31237,0.178488 -0.49087,0.535488 -0.1338,0.356987 -0.1338,0.84785 0,0.312374 0.0893,0.981724 0.0892,0.669363 0.0892,0.937113 0.40161,0 0.80322,-0.04462 0.44624,-0.04462 0.84785,-0.08925 0.35702,0 0.49087,0.04462 0,-0.937113 -0.0893,-1.38335 -0.0446,-0.446238 -0.31238,-1.1156 -0.22311,-0.937113 -1.2941,-0.713988 z m -9.05866,3.212925 q -0.22314,-0.133813 -0.44625,-0.133813 -0.17849,0 -0.40161,0.133813 -0.22313,0.08925 -0.49086,0.4016248 -0.0446,0.2231125 -0.0446,0.5801 0,0.8032375 0.35699,1.6957125 0.5355,1.02635 0.714,1.5172125 0.26774,-0.3123625 0.84785,-0.535475 0.62474,-0.223125 0.9371,-0.312375 -0.44623,-1.4279625 -0.7586,-2.14195 -0.26775,-0.7586125 -0.71398,-1.2048498 z m 8.52318,0.4016248 q -0.0446,0.31235 -0.0446,0.713975 0,0.4016125 0,0.6247375 0,0.8924875 0.0446,1.2940875 0.53548,-0.08925 0.75861,-0.08925 0.53549,0 0.80322,0.08925 0.31237,0.044625 0.9371,0.26775 l -0.0892,-2.186575 q 0.17849,-0.9817248 -1.07097,-0.9817248 -0.31238,0 -0.7586,0.08925 -0.40163,0.08925 -0.58013,0.1784873 z m -0.0892,2.945175 q -0.17852,0.3569875 -0.17852,1.1156 v 0.803225 q 0,0.357 -0.0446,0.4908625 0.40162,0.26775 1.2941,0.401625 0.93709,0.08925 1.33871,0.223125 l 0.1785,-2.7666875 q -0.35699,0 -1.07097,-0.1785 -0.66937,-0.223125 -0.93712,-0.223125 -0.22311,0 -0.5801,0.1339375 z m -6.78287,0.26775 q -0.4016,0 -0.84785,0.2231125 -0.40161,0.1785 -0.89247,0.44625 -0.0892,0.4908625 0.0892,1.0709625 0.17849,0.5354875 0.49085,1.0263625 l 2.14195,-1.070975 z m 1.96347,1.02635 q 0,0.5354875 -0.0446,1.02635 0,0.4908625 0,0.9817375 0,0.892475 0.0446,1.3387125 0.0446,0.4462375 0.31237,1.2940875 l 0.89248,-1.070975 q 0.49086,-0.3569875 1.02635,-0.3569875 0.22312,0 0.35698,0.044625 l 0.0446,-0.8032375 q -0.0892,-0.1784875 0.0446,-0.6693625 0.1785,-0.535475 0.1785,-0.7586 0,-0.3123625 -0.22312,-0.5355 0,-0.66935 -0.357,-0.84785 -0.35699,-0.1785 -0.71399,-0.1785 -0.84785,0 -1.56182,0.5354875 z m -8.96942,0.5354875 q -0.13395,0.8032375 0.17849,1.4279625 0.357,0.6247375 1.1156,1.427975 0.31236,-0.044625 0.357,-0.1338125 v 0.4908625 q 0.26774,0.4462375 0.44623,0.7586125 0.22313,0.26775 0.58012,0.3123625 0.13381,-0.3569875 0.53549,-0.7586 0.44624,-0.401625 0.66936,-0.580125 0,0.223125 -0.40162,0.5354875 0.1785,-0.1338 0.31236,-0.1784875 0.13395,-0.08925 0.26775,0 -0.80323,0.5801125 -1.16023,1.249475 l 1.42797,1.4279625 1.24948,-1.5618375 q -1.38335,-1.20485 -2.72206,-2.4096875 h -0.58012 l 0.1785,-0.08925 v -0.401625 q -0.49088,-0.6693625 -0.9371,-1.2048375 -0.44625,-0.5354875 -0.98173,-0.5354875 -0.31237,0 -0.53549,0.2231125 z m 8.07694,0.6247375 q -0.53549,0 -1.24947,0.4016125 -0.66937,0.4016125 -0.98174,0.5801 0.26775,0.3570125 0.40162,0.9817375 0.1785,0.5801125 0.31238,1.160225 h 0.22311 q 0.13395,-0.1785 1.11561,-0.7139875 0.98172,-0.535475 0.71398,-1.3387125 z m 6.82746,0.7139875 q -0.22311,0 -0.66935,-0.1785 -0.44623,-0.1785 -0.66936,-0.1785 -0.44624,0 -0.62472,0.624725 -0.13395,0.26775 -0.714,0.5355 -0.5801,0.2677375 -0.35699,0.803225 0.0892,0.044625 1.33872,0.981725 1.2941,0.9371125 1.96345,0.9371125 0.66937,0 1.20485,-0.4908625 l -0.0892,-2.5882 z m 0.80324,-0.08925 -0.31236,-0.08925 z m -3.79304,0.1785 v 0.267725 q 0.1338,-0.044625 0,-0.267725 z m -3.39142,1.5172125 -1.51723,0.892475 q -0.80321,0.08925 -1.42795,0.892475 -0.58012,0.8032375 -1.07097,1.5172125 1.74032,4.685525 3.52529,9.3264257 0.26775,0.223112 0.53548,0.312375 0.26774,0.08925 0.58012,0.08925 0.5801,0 1.20485,-0.26775 0.66935,-0.31235 1.2941,-0.6247252 -0.31238,0.3123752 -0.66937,0.5354872 -0.31237,0.223113 -0.89247,0.535488 0.98171,-0.356988 1.56184,-0.892475 0.0893,0.178487 0.0893,0.624737 0,0.223113 0,0.401613 -0.0893,0.1785 -0.0893,0.223112 -0.0892,-0.669362 -0.0892,-0.803237 -0.0892,0.04462 -0.9371,0.490875 -0.84785,0.401612 -1.2941,0.401612 -0.35699,0 -0.66937,-0.178487 0.44625,1.338725 0.44625,2.945174 0,0.535488 -0.0446,0.758613 l 2.67742,0.490863 q -0.0446,-0.446238 -0.0892,-0.9371 l 0.0892,0.133799 0.1785,-0.08925 0.13382,0.803225 q 0.62473,-0.08925 0.66935,-0.356988 l 0.0893,0.1785 q 0.58011,0 1.38333,-0.535487 0.84787,-0.535488 1.02635,-0.624738 v -0.892474 q 0,-0.803237 -0.0446,-1.4726 -0.0446,-0.713975 -0.22314,-1.383338 -0.44622,0.08925 -0.89247,0.178488 -0.44624,0.08925 -0.5801,0.08925 -0.49088,0 -0.75862,-0.312363 1.07098,0 1.74034,-0.08925 0.66935,-0.1339512 1.29409,-0.4908632 l 0.1785,2.0080752 V 9.4618008 q -0.44624,0.357 -1.07098,0.490863 -0.62473,0.1339372 -1.38333,0.1339372 -0.714,0 -1.33873,-0.1339372 -1.02635,-0.535488 -1.38334,-1.829575 -0.26775,-1.6064755 -0.35701,-2.2758255 l 0.26775,0.6247375 q -0.13394,-0.8478625 0.40161,-1.8295875 0.5355,-0.981725 1.07099,-1.8742 l -0.9373,-0.6693615 q -0.22311,-0.2231375 -0.5801,-0.044625 -0.31238,0.1338 -0.40163,0.08925 0.357,-0.223125 0.5355,-0.4016125 l -0.44625,-0.5354875 q -0.26775,-0.08925 -0.80323,0.08925 -0.49087,0.13395 -0.62474,0.13395 0.31237,-0.1785 0.40162,-0.2231125 0.0892,-0.08925 -0.0446,-0.1785 0.44624,0.044625 0.71399,-0.08925 -0.40163,-0.5801125 -0.75862,-1.427975 -0.357,-0.84785 -0.66936,-1.78495 z m 2.23121,0.2677375 q -0.75862,0.401625 -0.75862,1.5172125 0.40161,0.312375 0.66936,0.5355 0.26775,0.1784875 0.62474,0.08925 l -0.0446,-0.2677375 q 0.13394,-0.6693625 0.66935,-1.070975 l 0.0893,0.08925 q -0.26775,0.1785 -0.40161,0.4016125 -0.0892,0.223125 -0.17849,0.6693625 h 0.17849 q 0.1785,-0.2677375 0.35699,-0.5801 0.22312,-0.312375 0.1785,-0.62475 -0.35699,-0.4908625 -0.58013,-0.66935 -0.22311,-0.223125 -0.49086,-0.223125 -0.0892,0 -0.31235,0.13395 z m 1.24946,0.26775 0.22312,0.3123625 q 0.0892,0.3569875 -0.0446,0.8032375 -0.0892,0.4462375 -0.49086,0.7586 -0.40161,0.26775 -0.5801,0.26775 -0.1785,0 -0.53549,-0.223125 -0.31237,-0.2231125 -0.714,-0.5354875 -0.0446,-0.1785 -0.0446,-0.5354875 0,-0.3569875 0.13395,-0.5801 -0.31238,0.31235 -0.40163,0.9370875 0.1338,0.357 0.31236,0.7139875 0.22314,0.357 0.80324,1.02635 0.58011,0.5355 1.24948,1.0709875 0.71398,0.535475 1.42797,0.4016 0.0446,0.2231375 0.26773,0.2231375 0.22313,0 0.35701,0 0,0.1338 -0.26775,0.1784875 -0.26775,0.044625 -0.62474,0.08925 0.1338,0.5801 0.40163,1.070975 0.31236,0.4908625 0.71397,0.6693625 -0.26775,0.08925 -0.53549,-0.044625 -0.22312,-0.1785 -0.40162,-0.357 0.31237,0.3123625 0.26775,0.4016125 -0.1338,0.044625 -0.35699,-0.08925 -0.26775,-0.2677375 -0.44625,-0.892475 -0.13394,-0.6693625 -0.26772,-0.8478625 -0.44625,0.44625 -0.80324,1.070975 -0.357,0.5801125 -0.66936,1.160225 v 0.5355 q 0,0.5801 0.13393,1.2494625 0.13382,0.6247375 0.26774,1.249463 0.1785,0.62475 0.66936,0.937112 0.53549,0.312375 1.2941,0.44625 0.84785,0.08925 1.42797,-0.223138 0.58012,-0.312362 1.60647,-1.160224 0.17849,-0.401601 0.22311,-0.7586005 0.0446,-0.401625 0.0446,-0.9371 0,-0.4462375 0,-0.8924875 -0.0893,-0.4016 -0.0893,-0.535475 -0.22311,0.044625 -0.40161,0.08925 0.62472,-0.624725 0.62472,-1.3387125 0,-0.7139875 -0.5801,-1.5618375 -0.58012,-0.8478625 -1.07099,-1.6511 -0.0446,0.1338125 -0.0892,0.357 -0.0446,0.223125 -0.26775,0.1785 0,-0.044625 0.1785,-0.401625 0.1785,-0.3569875 -0.0446,-0.4016 -0.35699,0.5801 -0.66936,0.9370875 -0.26773,0.357 -0.53548,0.5354875 -0.13395,-0.1338 -0.0446,-0.3569875 0.13393,-0.2677375 0.13393,-0.3123625 0.0446,-0.1338 0.49085,-0.5801125 0.44625,-0.44625 0.40163,-0.7139875 z m 4.32853,1.2494625 q -0.17849,0.1785125 -0.62474,0.223125 -0.44624,0.044625 -0.62474,0.1338125 0.22313,0.446225 0.58013,0.981725 0.4016,0.5354875 0.89247,1.20485 0,-0.4908625 -0.0446,-1.2494875 -0.0446,-0.7586 -0.1785,-1.294075 z m -11.513,0.8924875 0.0446,-0.223125 z m 9.68342,0.2677375 q -0.58012,0.4908625 -0.49087,0.84785 z m 0.98173,9.3710372 q -0.1785,0.713988 -0.1785,1.6511 0,0.490863 0,0.803213 0.0446,0.26775 0.1785,1.249487 l 0.1785,-0.04462 z m -13.20871,-13.2086872 -0.44623,0.624725 z m 7.71995,-0.6693625 q 0.0892,0 0.26775,0 0.1785,0 0.22312,0.1338 -0.53549,0.2677375 -0.80324,0.3123625 0.62474,-0.1785 0.89249,-0.2231125 0.26774,-0.08925 0.40161,-0.223125 -0.1785,-0.08925 -0.53548,-0.08925 -0.1785,0 -0.44625,0.08925 z m 4.2839,4.01615 -0.53549,0.8032375 z m -4.81938,-3.7930375 -0.0892,-0.08925 z m 4.95325,5.533375 -0.0892,0.13395 0.44623,-0.714 z m -6.96134,3.07905 -0.1785,0.223125 0.13382,0.08925 -0.75862,1.160225 q 0.0892,-0.401625 0.31237,-0.7586125 0.22312,-0.4016125 0.49087,-0.713975 z m 1.42797,2.275825 -0.0446,-0.892475 z m 3.25756,2.7666872 q 0.0893,0.1785 0.17849,0.758613 0.0892,0.5355 0.13381,0.803225 -0.0893,-0.446238 -0.13381,-0.803225 0,-0.357 -0.26775,-0.535488 -0.0892,0.1338 -0.0892,0.446238 0,0.357 -0.0446,0.490875 -0.0446,-0.535488 -0.0446,-0.758625 0,-0.312363 0.26775,-0.401613 z m -2.85594,-13.3425622 0.26774,-0.08925 z m 3.70379,14.3243002 0.0892,0.1785 z m -1.33871,0.356987 0.0893,0.9371 z m 1.42796,0.312375 -0.0892,-0.26775 z m -0.62474,0.04463 0.0892,0.446237 z m 0.0892,1.02635 v 0.178487 -0.624738 z" />
  </g>
</svg>
